<?xml version="1.0" encoding="iso-8859-1"?>
<!-- Generator: Adobe Illustrator 19.0.0, SVG Export Plug-In . SVG Version: 6.00 Build 0)  -->
<svg version="1.1" id="Capa_1" xmlns="http://www.w3.org/2000/svg" xmlns:xlink="http://www.w3.org/1999/xlink" x="0px" y="0px"
	 viewBox="0 0 456.008 456.008" style="enable-background:new 0 0 456.008 456.008;" xml:space="preserve">
<g>
	<polygon style="fill:#ED664C;" points="446.004,119.669 377.204,165.369 228.004,80.869 311.004,37.769 	"/>
	<polygon style="fill:#ED664C;" points="446.004,211.069 378.204,252.069 377.004,252.769 311.004,293.069 228.004,249.469 
		377.204,165.369 	"/>
	<path style="fill:#ED664C;" d="M377.204,253.169v65.8c0,11.3-6,21.7-15.8,27.3l-117.6,67.9c-4.9,2.8-10.3,4.2-15.8,4.2v-168.9
		l83,43.6l66-40.2L377.204,253.169z"/>
</g>
<polygon style="fill:#FDC75B;" points="377.204,165.369 228.004,249.469 79.304,165.369 228.004,80.869 "/>
<g>
	<path style="fill:#ED664C;" d="M228.004,249.469v168.9c-5.5,0-10.9-1.4-15.8-4.2l-117.2-67.9c-9.7-5.6-15.7-16-15.7-27.3v-65.9
		l0.1-0.1l65.6,40L228.004,249.469z"/>
	<polygon style="fill:#ED664C;" points="228.004,80.869 79.304,165.369 10.004,119.669 145.004,37.769 	"/>
	<polygon style="fill:#ED664C;" points="228.004,249.469 145.004,293.069 79.404,253.069 77.804,252.069 10.004,211.069 
		79.304,165.369 	"/>
</g>
<path d="M456.004,119.469c-0.1-3.4-1.9-6.6-4.8-8.3l-135-81.9c-3-1.8-6.7-1.9-9.8-0.3l-78.4,40.6l-78.4-40.7
	c-3.1-1.6-6.8-1.5-9.8,0.3l-135,81.9c-2.9,1.8-4.7,4.9-4.8,8.4c-0.1,3.4,1.6,6.6,4.5,8.5l56.7,37.4l-56.7,37.4
	c-2.9,1.9-4.6,5.1-4.5,8.5s1.7,6.6,4.7,8.4l64.3,39v60.3c0,14.8,8.1,28.5,20.9,35.9l117.3,67.9c6.3,3.6,13.5,5.5,20.8,5.5
	s14.5-1.9,20.8-5.5l117.5-67.9c12.8-7.4,20.7-21.2,20.7-36v-60.6l64.1-38.7c2.9-1.8,4.8-4.9,4.9-8.3c0.1-3.4-1.6-6.6-4.4-8.5
	l-56.3-37.4l56.3-37.4C454.404,126.169,456.104,122.869,456.004,119.469z M228.004,237.969l-128.4-72.6l128.4-73l128.9,73
	L228.004,237.969z M145.404,49.169l61.7,32l-127.3,72.4l-51-33.6L145.404,49.169z M79.704,177.069l127.4,72l-61.7,32.4l-60.8-37
	l-55.9-33.8L79.704,177.069z M99.904,337.569c-6.6-3.8-10.9-11-10.9-18.6v-48.2l50.6,30.7c1.6,1,3.5,1.5,5.3,1.5
	c1.6,0,3.2-0.4,4.7-1.1l68.4-35.9v139.9c-0.2-0.1-0.6-0.3-0.8-0.4L99.904,337.569z M356.304,337.569l-117.5,67.9
	c-0.3,0.2-0.5,0.3-0.8,0.5v-140l68.3,35.9c1.5,0.8,3.1,1.1,4.7,1.1c1.8,0,3.5-0.5,5.1-1.5l50.9-31.1v48.4
	C367.004,326.669,363.004,333.769,356.304,337.569z M373.004,243.569l-62.4,38l-61.7-32.4l127.8-72l50.6,33.6L373.004,243.569z
	 M376.804,153.669l-127.8-72.5l61.7-32l116.7,70.9L376.804,153.669z"/>
<g>
</g>
<g>
</g>
<g>
</g>
<g>
</g>
<g>
</g>
<g>
</g>
<g>
</g>
<g>
</g>
<g>
</g>
<g>
</g>
<g>
</g>
<g>
</g>
<g>
</g>
<g>
</g>
<g>
</g>
</svg>
