<?xml version="1.0" encoding="iso-8859-1"?>
<!-- Generator: Adobe Illustrator 19.0.0, SVG Export Plug-In . SVG Version: 6.00 Build 0)  -->
<svg version="1.1" id="Capa_1" xmlns="http://www.w3.org/2000/svg" xmlns:xlink="http://www.w3.org/1999/xlink" x="0px" y="0px"
	 viewBox="0 0 443.4 443.4" style="enable-background:new 0 0 443.4 443.4;" xml:space="preserve">
<path style="fill:#FDC75B;" d="M381.95,101.6v300.1c0,17.4-14.1,31.4-31.4,31.4H92.85c-17.3,0-31.4-14-31.4-31.4V101.6
	c0-17.4,14.1-31.4,31.4-31.4h48.2h3.1v36.3h154.5V70.2h51.9C367.85,70.2,381.95,84.2,381.95,101.6z M171.85,212.2v-56.9h-62.2v56.9
	L171.85,212.2L171.85,212.2z"/>
<g>
	<path style="fill:#ED664C;" d="M298.65,70.2v36.3h-154.5V70.2V41.1h38.2c4.2-17.8,19.4-31.4,38.8-31.4s35.1,13.6,38.8,31.4h38.7
		V70.2z"/>
	<rect x="109.65" y="155.3" style="fill:#ED664C;" width="62.2" height="56.9"/>
</g>
<path d="M92.85,443.4h257.7c22.8,0,41.2-18.9,41.2-41.7V101.6c0-22.8-18.3-41.2-41.2-41.2h-41.9V41.1c0-5.5-4.5-9.7-10-9.7h-31.3
	c-7.3-19-25.6-31.4-46.2-31.4c-20.5,0-38.4,12.4-46,31.4h-30.9c-5.5,0-10.5,4.2-10.5,9.7v19.3h-40.8c-23,0-41.3,18.4-41.3,41.2
	v300.1C51.65,424.5,69.95,443.4,92.85,443.4z M153.65,51.4h28.7c4.6,0,8.7-3.3,9.7-7.8c3.3-14.2,15-23.8,29-23.8s26.2,10,29,23.5
	c1,4.6,5,8.1,9.8,8.1h28.8v45h-135V51.4z M71.65,101.6c0-11.8,9.3-21.2,21.2-21.2h40.8v26.1c0,5.5,5,9.9,10.5,9.9h154.5
	c5.5,0,10-4.3,10-9.9V80.4h41.8c11.8,0,21.2,9.4,21.2,21.2v300.1c0,11.8-9.3,21.7-21.2,21.7H92.85c-11.8,0-21.2-9.9-21.2-21.7V101.6
	z"/>
<path d="M167.05,235.6l-33.7,31.8l-14.5-14.9c-3.8-4-10.2-4.1-14.1-0.2c-4,3.8-4.1,10.2-0.2,14.1l21.4,22c2,2,4.6,3,7.2,3
	c2.5,0,4.9-0.9,6.9-2.7l40.9-38.6c4-3.8,4.2-10.1,0.4-14.1C177.45,231.9,171.05,231.8,167.05,235.6z"/>
<path d="M211.15,278.4h120.5c5.5,0,10-4.5,10-10s-4.5-10-10-10h-120.5c-5.5,0-10,4.5-10,10S205.65,278.4,211.15,278.4z"/>
<path d="M211.15,194.4h120.5c5.5,0,10-4.5,10-10s-4.5-10-10-10h-120.5c-5.5,0-10,4.5-10,10S205.65,194.4,211.15,194.4z"/>
<path d="M167.05,319.4l-33.7,31.8l-14.5-14.9c-3.8-4-10.2-4.1-14.1-0.2c-4,3.8-4.1,10.2-0.2,14.1l21.4,22c2,2,4.6,3,7.2,3
	c2.5,0,4.9-0.9,6.9-2.7l40.9-38.6c4-3.8,4.2-10.1,0.4-14.1C177.45,315.7,171.05,315.6,167.05,319.4z"/>
<path d="M211.15,362.4h120.5c5.5,0,10-4.5,10-10s-4.5-10-10-10h-120.5c-5.5,0-10,4.5-10,10S205.65,362.4,211.15,362.4z"/>
<path d="M109.65,222.4h62c5.5,0,10-4.5,10-10v-57c0-5.5-4.5-10-10-10h-62c-5.5,0-10,4.5-10,10v57
	C99.65,217.9,104.15,222.4,109.65,222.4z M119.65,165.4h42v37h-42V165.4z"/>
<g>
</g>
<g>
</g>
<g>
</g>
<g>
</g>
<g>
</g>
<g>
</g>
<g>
</g>
<g>
</g>
<g>
</g>
<g>
</g>
<g>
</g>
<g>
</g>
<g>
</g>
<g>
</g>
<g>
</g>
</svg>
